<svg xmlns="http://www.w3.org/2000/svg" width="166.333" height="37.834"><path fill="#0155A0" d="M52.288 9.816h7.768l-2 7.469h-7.83l2.062-7.469zm-.96-8.67h-7.739l-9.856 35.676 1.614-.012c1.678-.172 3.343-.859 4.77-1.982 1.39-1.094 2.447-2.533 3.04-4.109l8.171-29.573zm-18.909 0l-7.371 26.832c-.035.129-.188.57-.721.988-.395.313-.771.428-.972.428h-12.31l2.848-10.639c.037-.129.195-.596.754-1.035.408-.322.806-.436 1.016-.436h8.982l2.052-7.469h-11.034c-1.97 0-3.973.727-5.641 2.043-1.639 1.289-2.829 3.055-3.337 4.961l-5.37 20.035h22.04c1.948 0 3.935-.717 5.593-2.027 1.625-1.279 2.801-3.029 3.307-4.914l7.903-28.768h-7.739z"/><path fill="#5F6268" d="M86.468 26.4v-2.415h-.059c-.53.942-1.207 1.635-2.032 2.076-.824.442-1.796.663-2.915.663-1.002 0-1.836-.133-2.503-.398-.668-.265-1.208-.643-1.62-1.133s-.702-1.075-.869-1.752c-.167-.678-.25-1.43-.25-2.254v-10.012h2.503v10.308c0 .942.275 1.688.825 2.238.549.55 1.305.824 2.268.824.766 0 1.428-.117 1.987-.354.56-.235 1.026-.568 1.399-1.001.372-.432.652-.938.839-1.517s.28-1.212.28-1.899v-8.6h2.503v15.226h-2.356z"/><path fill="#5F6268" d="M91.387 11.175h3.21l3.651 5.331 3.799-5.331h3.004l-5.242 7.009 5.891 8.217h-3.211l-4.24-6.303-4.242 6.302h-3.033l5.714-8.01-5.301-7.215z"/><path fill="#989B98" d="M117.802 5.373v21.027h-1.854v-21.027h1.854z"/><path fill="#989B98" d="M121.748 13.561c.314-.648.741-1.178 1.281-1.59s1.173-.717 1.899-.914c.727-.195 1.531-.294 2.415-.294.667 0 1.335.063 2.003.191.667.128 1.266.368 1.796.722s.962.85 1.296 1.487.501 1.468.501 2.488v8.069c0 .746.363 1.119 1.09 1.119.216 0 .412-.039.589-.118v1.562l-.574.088c-.167.02-.379.029-.634.029-.471 0-.85-.063-1.134-.191-.284-.127-.506-.309-.662-.545-.157-.235-.261-.516-.31-.84-.049-.323-.073-.682-.073-1.074h-.06c-.334.49-.672.928-1.016 1.311s-.727.702-1.148.957c-.423.256-.903.451-1.443.589s-1.183.206-1.929.206c-.707 0-1.369-.084-1.988-.25-.618-.166-1.158-.432-1.619-.795-.462-.363-.824-.824-1.09-1.385-.265-.559-.397-1.222-.397-1.987 0-1.061.235-1.89.707-2.489.471-.598 1.094-1.055 1.87-1.369.775-.313 1.648-.534 2.621-.662.972-.127 1.958-.25 2.959-.368.393-.039.736-.089 1.031-.147.294-.059.539-.162.736-.309.195-.148.348-.35.456-.604.107-.255.162-.589.162-1.001 0-.629-.104-1.144-.31-1.547-.206-.401-.49-.721-.854-.957-.363-.234-.786-.396-1.267-.485-.481-.089-.997-.132-1.546-.132-1.178 0-2.141.279-2.886.839-.747.56-1.14 1.458-1.179 2.694h-1.855c.062-.884.249-1.65.562-2.298zm9.277 4.535c-.118.217-.344.373-.678.471-.334.1-.629.168-.884.207-.785.137-1.595.26-2.43.367-.834.108-1.595.271-2.282.486-.688.217-1.251.525-1.693.928-.441.402-.662.977-.662 1.723 0 .471.093.889.279 1.252s.437.678.751.942.678.466 1.09.604.834.206 1.267.206c.707 0 1.384-.107 2.032-.324.647-.215 1.212-.529 1.693-.941.48-.413.863-.914 1.148-1.502.284-.59.427-1.257.427-2.003v-2.415h-.058z"/><path fill="#989B98" d="M138.505 5.373v8.717h.06c.195-.549.476-1.03.839-1.442s.78-.761 1.252-1.046c.471-.283.981-.495 1.531-.633.549-.137 1.099-.206 1.648-.206 1.158 0 2.165.216 3.02.647.854.433 1.564 1.017 2.135 1.753.569.735.991 1.59 1.267 2.562.274.973.412 1.998.412 3.078s-.138 2.105-.412 3.077c-.275.972-.697 1.825-1.267 2.562-.57.736-1.281 1.316-2.135 1.738-.854.422-1.861.633-3.02.633-1.236 0-2.341-.285-3.313-.854s-1.674-1.385-2.105-2.445h-.06v2.886h-1.708v-21.027h1.856zm10.027 11.088c-.187-.775-.48-1.467-.883-2.076-.403-.607-.918-1.104-1.546-1.486-.629-.383-1.385-.574-2.269-.574-.981 0-1.811.191-2.488.574-.677.383-1.227.879-1.648 1.486-.423.609-.727 1.301-.913 2.076-.188.775-.28 1.557-.28 2.342s.093 1.565.28 2.341c.187.776.49 1.468.913 2.076.422.608.972 1.104 1.648 1.487.678.383 1.507.574 2.488.574.884 0 1.64-.191 2.269-.574.628-.383 1.143-.879 1.546-1.487.402-.608.696-1.3.883-2.076.187-.775.28-1.556.28-2.341s-.093-1.567-.28-2.342z"/><path fill="#989B98" d="M162.3 14.164c-.217-.422-.506-.77-.869-1.045s-.78-.477-1.251-.604c-.472-.128-.973-.191-1.502-.191-.413 0-.83.043-1.252.132-.423.089-.81.235-1.163.442-.354.205-.639.476-.854.809-.216.335-.324.747-.324 1.237 0 .413.104.761.31 1.046s.466.525.78.721c.314.197.658.359 1.031.486.372.128.716.23 1.03.31l2.474.56c.53.078 1.056.221 1.576.427s.981.476 1.384.81.731.746.986 1.237.383 1.07.383 1.737c0 .824-.187 1.527-.56 2.105-.373.58-.849 1.051-1.428 1.414s-1.232.623-1.959.78-1.442.235-2.149.235c-1.787 0-3.235-.422-4.344-1.266-1.109-.844-1.742-2.199-1.899-4.064h1.855c.078 1.256.534 2.204 1.369 2.842.834.639 1.87.957 3.106.957.452 0 .918-.049 1.399-.146.48-.099.928-.266 1.34-.502.412-.234.751-.534 1.016-.897.266-.363.397-.81.397-1.34 0-.452-.093-.829-.279-1.134s-.438-.56-.751-.766c-.314-.207-.673-.378-1.075-.516-.402-.137-.81-.255-1.222-.354l-2.386-.529c-.608-.158-1.168-.34-1.679-.545-.511-.207-.957-.462-1.34-.766-.383-.305-.683-.678-.898-1.119-.216-.442-.323-.987-.323-1.635 0-.766.171-1.424.515-1.974s.79-.991 1.34-1.325 1.164-.578 1.841-.736c.678-.156 1.35-.235 2.018-.235.766 0 1.477.099 2.135.294.658.197 1.237.502 1.738.914.5.412.897.922 1.192 1.531.294.608.461 1.324.5 2.149h-1.854c-.021-.568-.138-1.064-.354-1.486z"/></svg>