<?xml version="1.0" encoding="utf-8"?>
<!-- Generator: Adobe Illustrator 16.0.3, SVG Export Plug-In . SVG Version: 6.00 Build 0)  -->
<!DOCTYPE svg PUBLIC "-//W3C//DTD SVG 1.1//EN" "http://www.w3.org/Graphics/SVG/1.1/DTD/svg11.dtd">
<svg version="1.1" id="Layer_1" xmlns="http://www.w3.org/2000/svg" xmlns:xlink="http://www.w3.org/1999/xlink" x="0px" y="0px"
	 width="166.333px" height="37.834px" viewBox="0 0 166.333 37.834" enable-background="new 0 0 166.333 37.834"
	 xml:space="preserve">
<path fill="#0155A0" d="M52.288,9.816h7.768l-2,7.469h-7.83L52.288,9.816z M51.328,1.146h-7.739l-9.856,35.676l1.614-0.012
	c1.678-0.172,3.343-0.859,4.77-1.982c1.39-1.094,2.447-2.533,3.04-4.109L51.328,1.146z M32.419,1.146l-7.371,26.832
	c-0.035,0.129-0.188,0.57-0.721,0.988c-0.395,0.313-0.771,0.428-0.972,0.428h-12.31l2.848-10.639
	c0.037-0.129,0.195-0.596,0.754-1.035c0.408-0.322,0.806-0.436,1.016-0.436h8.982l2.052-7.469H15.663
	c-1.97,0-3.973,0.727-5.641,2.043c-1.639,1.289-2.829,3.055-3.337,4.961l-5.37,20.035h22.04c1.948,0,3.935-0.717,5.593-2.027
	c1.625-1.279,2.801-3.029,3.307-4.914l7.903-28.768H32.419z"/>
<g>
	<path fill="#5F6268" d="M86.468,26.4v-2.415h-0.059c-0.53,0.942-1.207,1.635-2.032,2.076c-0.824,0.442-1.796,0.663-2.915,0.663
		c-1.002,0-1.836-0.133-2.503-0.398c-0.668-0.265-1.208-0.643-1.62-1.133s-0.702-1.075-0.869-1.752
		c-0.167-0.678-0.25-1.43-0.25-2.254V11.175h2.503v10.308c0,0.942,0.275,1.688,0.825,2.238c0.549,0.55,1.305,0.824,2.268,0.824
		c0.766,0,1.428-0.117,1.987-0.354c0.56-0.235,1.026-0.568,1.399-1.001c0.372-0.432,0.652-0.938,0.839-1.517s0.28-1.212,0.28-1.899
		v-8.6h2.503V26.4H86.468z"/>
	<path fill="#5F6268" d="M91.387,11.175h3.21l3.651,5.331l3.799-5.331h3.004l-5.242,7.009l5.891,8.217h-3.211l-4.24-6.303
		L94.007,26.4h-3.033l5.714-8.01L91.387,11.175z"/>
	<path fill="#989B98" d="M117.802,5.373V26.4h-1.854V5.373H117.802z"/>
	<path fill="#989B98" d="M121.748,13.561c0.314-0.648,0.741-1.178,1.281-1.59s1.173-0.717,1.899-0.914
		c0.727-0.195,1.531-0.294,2.415-0.294c0.667,0,1.335,0.063,2.003,0.191c0.667,0.128,1.266,0.368,1.796,0.722
		s0.962,0.85,1.296,1.487s0.501,1.468,0.501,2.488v8.069c0,0.746,0.363,1.119,1.09,1.119c0.216,0,0.412-0.039,0.589-0.118v1.562
		c-0.217,0.039-0.408,0.068-0.574,0.088c-0.167,0.02-0.379,0.029-0.634,0.029c-0.471,0-0.85-0.063-1.134-0.191
		c-0.284-0.127-0.506-0.309-0.662-0.545c-0.157-0.235-0.261-0.516-0.31-0.84c-0.049-0.323-0.073-0.682-0.073-1.074h-0.06
		c-0.334,0.49-0.672,0.928-1.016,1.311s-0.727,0.702-1.148,0.957c-0.423,0.256-0.903,0.451-1.443,0.589s-1.183,0.206-1.929,0.206
		c-0.707,0-1.369-0.084-1.988-0.25c-0.618-0.166-1.158-0.432-1.619-0.795c-0.462-0.363-0.824-0.824-1.09-1.385
		c-0.265-0.559-0.397-1.222-0.397-1.987c0-1.061,0.235-1.89,0.707-2.489c0.471-0.598,1.094-1.055,1.87-1.369
		c0.775-0.313,1.648-0.534,2.621-0.662c0.972-0.127,1.958-0.25,2.959-0.368c0.393-0.039,0.736-0.089,1.031-0.147
		c0.294-0.059,0.539-0.162,0.736-0.309c0.195-0.148,0.348-0.35,0.456-0.604c0.107-0.255,0.162-0.589,0.162-1.001
		c0-0.629-0.104-1.144-0.31-1.547c-0.206-0.401-0.49-0.721-0.854-0.957c-0.363-0.234-0.786-0.396-1.267-0.485
		c-0.481-0.089-0.997-0.132-1.546-0.132c-1.178,0-2.141,0.279-2.886,0.839c-0.747,0.56-1.14,1.458-1.179,2.694h-1.855
		C121.248,14.975,121.435,14.209,121.748,13.561z M131.025,18.096c-0.118,0.217-0.344,0.373-0.678,0.471
		c-0.334,0.1-0.629,0.168-0.884,0.207c-0.785,0.137-1.595,0.26-2.43,0.367c-0.834,0.108-1.595,0.271-2.282,0.486
		c-0.688,0.217-1.251,0.525-1.693,0.928c-0.441,0.402-0.662,0.977-0.662,1.723c0,0.471,0.093,0.889,0.279,1.252
		s0.437,0.678,0.751,0.942s0.678,0.466,1.09,0.604s0.834,0.206,1.267,0.206c0.707,0,1.384-0.107,2.032-0.324
		c0.647-0.215,1.212-0.529,1.693-0.941c0.48-0.413,0.863-0.914,1.148-1.502c0.284-0.59,0.427-1.257,0.427-2.003v-2.415H131.025z"/>
	<path fill="#989B98" d="M138.505,5.373v8.717h0.06c0.195-0.549,0.476-1.03,0.839-1.442s0.78-0.761,1.252-1.046
		c0.471-0.283,0.981-0.495,1.531-0.633c0.549-0.137,1.099-0.206,1.648-0.206c1.158,0,2.165,0.216,3.02,0.647
		c0.854,0.433,1.564,1.017,2.135,1.753c0.569,0.735,0.991,1.59,1.267,2.562c0.274,0.973,0.412,1.998,0.412,3.078
		s-0.138,2.105-0.412,3.077c-0.275,0.972-0.697,1.825-1.267,2.562c-0.57,0.736-1.281,1.316-2.135,1.738
		c-0.854,0.422-1.861,0.633-3.02,0.633c-1.236,0-2.341-0.285-3.313-0.854c-0.972-0.569-1.674-1.385-2.105-2.445h-0.06V26.4h-1.708
		V5.373H138.505z M148.532,16.461c-0.187-0.775-0.48-1.467-0.883-2.076c-0.403-0.607-0.918-1.104-1.546-1.486
		c-0.629-0.383-1.385-0.574-2.269-0.574c-0.981,0-1.811,0.191-2.488,0.574c-0.677,0.383-1.227,0.879-1.648,1.486
		c-0.423,0.609-0.727,1.301-0.913,2.076c-0.188,0.775-0.28,1.557-0.28,2.342s0.093,1.565,0.28,2.341
		c0.187,0.776,0.49,1.468,0.913,2.076c0.422,0.608,0.972,1.104,1.648,1.487c0.678,0.383,1.507,0.574,2.488,0.574
		c0.884,0,1.64-0.191,2.269-0.574c0.628-0.383,1.143-0.879,1.546-1.487c0.402-0.608,0.696-1.3,0.883-2.076
		c0.187-0.775,0.28-1.556,0.28-2.341S148.719,17.236,148.532,16.461z"/>
	<path fill="#989B98" d="M162.3,14.164c-0.217-0.422-0.506-0.77-0.869-1.045s-0.78-0.477-1.251-0.604
		c-0.472-0.128-0.973-0.191-1.502-0.191c-0.413,0-0.83,0.043-1.252,0.132c-0.423,0.089-0.81,0.235-1.163,0.442
		c-0.354,0.205-0.639,0.476-0.854,0.809c-0.216,0.335-0.324,0.747-0.324,1.237c0,0.413,0.104,0.761,0.31,1.046
		s0.466,0.525,0.78,0.721c0.314,0.197,0.658,0.359,1.031,0.486c0.372,0.128,0.716,0.23,1.03,0.31l2.474,0.56
		c0.53,0.078,1.056,0.221,1.576,0.427c0.52,0.206,0.981,0.476,1.384,0.81s0.731,0.746,0.986,1.237s0.383,1.07,0.383,1.737
		c0,0.824-0.187,1.527-0.56,2.105c-0.373,0.58-0.849,1.051-1.428,1.414s-1.232,0.623-1.959,0.78s-1.442,0.235-2.149,0.235
		c-1.787,0-3.235-0.422-4.344-1.266c-1.109-0.844-1.742-2.199-1.899-4.064h1.855c0.078,1.256,0.534,2.204,1.369,2.842
		c0.834,0.639,1.87,0.957,3.106,0.957c0.452,0,0.918-0.049,1.399-0.146c0.48-0.099,0.928-0.266,1.34-0.502
		c0.412-0.234,0.751-0.534,1.016-0.897c0.266-0.363,0.397-0.81,0.397-1.34c0-0.452-0.093-0.829-0.279-1.134s-0.438-0.56-0.751-0.766
		c-0.314-0.207-0.673-0.378-1.075-0.516c-0.402-0.137-0.81-0.255-1.222-0.354l-2.386-0.529c-0.608-0.158-1.168-0.34-1.679-0.545
		c-0.511-0.207-0.957-0.462-1.34-0.766c-0.383-0.305-0.683-0.678-0.898-1.119c-0.216-0.442-0.323-0.987-0.323-1.635
		c0-0.766,0.171-1.424,0.515-1.974s0.79-0.991,1.34-1.325s1.164-0.578,1.841-0.736c0.678-0.156,1.35-0.235,2.018-0.235
		c0.766,0,1.477,0.099,2.135,0.294c0.658,0.197,1.237,0.502,1.738,0.914c0.5,0.412,0.897,0.922,1.192,1.531
		c0.294,0.608,0.461,1.324,0.5,2.149h-1.854C162.633,15.082,162.516,14.586,162.3,14.164z"/>
</g>
</svg>
